<?xml version="1.0" standalone="no"?>
<!DOCTYPE svg PUBLIC "-//W3C//DTD SVG 20010904//EN"
 "http://www.w3.org/TR/2001/REC-SVG-20010904/DTD/svg10.dtd">
<svg version="1.0" xmlns="http://www.w3.org/2000/svg"
 width="626.000000pt" height="626.000000pt" viewBox="0 0 626.000000 626.000000"
 preserveAspectRatio="xMidYMid meet">
<metadata>
Created by potrace 1.11, written by Peter Selinger 2001-2013
</metadata>
<g transform="translate(0.000000,626.000000) scale(0.100000,-0.100000)"
fill="#000000" stroke="none">
<path d="M2704 6183 c-16 -38 -29 -70 -30 -73 0 -3 -13 -32 -28 -65 -15 -33
-36 -80 -46 -105 -10 -25 -30 -71 -44 -102 -15 -32 -27 -61 -28 -65 -1 -7 -17
-42 -77 -178 -10 -22 -74 -168 -141 -325 -67 -157 -133 -307 -145 -335 -12
-27 -57 -131 -100 -230 -42 -99 -83 -193 -90 -210 -8 -16 -59 -136 -115 -265
-56 -129 -109 -251 -117 -270 -9 -19 -17 -39 -18 -45 -2 -5 -14 -35 -28 -65
-55 -116 -147 -333 -147 -345 0 -7 -7 -18 -15 -25 -8 -7 -15 -18 -15 -26 0 -7
-14 -43 -31 -81 -16 -37 -34 -77 -39 -88 -33 -79 -43 -104 -56 -130 -12 -27
-45 -102 -49 -115 -1 -3 -11 -27 -23 -53 -12 -27 -22 -50 -22 -53 0 -2 -11
-27 -24 -56 -59 -127 -236 -543 -236 -555 0 -7 -4 -13 -10 -13 -5 0 -10 -5
-10 -11 0 -9 -138 -334 -206 -485 -7 -17 -43 -100 -80 -185 -36 -85 -77 -178
-90 -207 -13 -29 -24 -54 -24 -57 0 -2 -14 -34 -31 -72 -38 -85 -30 -68 -139
-318 -50 -116 -93 -214 -94 -220 -1 -5 -10 -28 -20 -50 -31 -67 -52 -114 -116
-265 -34 -80 -70 -163 -80 -185 -10 -22 -32 -74 -50 -115 -18 -41 -39 -88 -46
-104 -8 -16 -14 -30 -14 -31 0 -2 1213 -3 2695 -3 1482 0 2693 3 2691 7 -8 13
-100 206 -100 211 -1 5 -7 17 -102 218 l-63 132 -2087 0 c-1665 0 -2085 3
-2081 13 17 44 190 466 197 482 5 11 48 115 95 230 47 116 90 219 95 230 48
108 77 185 72 189 -3 3 0 6 6 6 7 0 12 7 12 15 0 8 10 37 21 63 28 62 42 96
69 162 12 30 28 69 35 85 7 17 55 131 105 255 51 124 98 239 105 255 7 17 30
71 50 120 20 50 41 99 45 110 5 11 37 88 71 170 33 83 67 164 74 180 7 17 39
93 70 170 31 77 63 154 70 170 7 17 70 169 139 338 70 169 138 333 151 364 14
30 25 59 25 64 0 5 12 34 26 66 33 72 35 78 125 298 40 99 78 188 84 197 9 14
23 -12 80 -145 37 -89 77 -182 88 -207 11 -25 25 -58 32 -75 7 -16 27 -62 43
-101 29 -66 53 -123 57 -134 1 -3 10 -23 19 -45 10 -22 38 -87 62 -145 25 -58
49 -114 54 -125 5 -11 39 -89 75 -174 36 -85 73 -170 81 -190 24 -55 66 -154
75 -176 4 -11 18 -42 30 -70 11 -27 27 -65 35 -82 8 -18 20 -48 28 -65 8 -18
60 -141 116 -273 56 -132 111 -259 122 -283 10 -23 32 -75 47 -114 46 -114 10
-104 389 -107 232 -2 332 1 332 8 0 6 -4 19 -9 29 -5 9 -16 33 -24 52 -8 19
-57 130 -107 245 -94 214 -112 254 -149 338 -11 26 -30 68 -42 95 -11 26 -29
65 -39 87 -10 22 -28 61 -39 88 -12 26 -29 66 -40 90 -10 23 -42 96 -71 162
-29 66 -57 129 -63 140 -6 11 -12 25 -13 30 -1 6 -28 66 -59 135 -31 69 -62
139 -70 155 -7 17 -22 50 -33 75 -11 25 -98 223 -195 440 -96 217 -189 425
-206 463 -17 37 -31 70 -31 72 0 2 -11 28 -24 57 -13 29 -40 88 -60 131 -20
44 -36 80 -36 82 0 2 -16 38 -35 79 -19 42 -35 78 -35 81 0 2 -20 46 -44 98
-24 52 -47 105 -51 118 -4 13 -12 30 -18 38 -6 7 -12 18 -13 25 -1 6 -15 40
-32 76 -30 66 -168 378 -193 438 -8 17 -17 32 -20 32 -3 0 -19 -30 -35 -67z"/>
<path d="M3746 5545 c3 -16 10 -34 14 -40 4 -5 33 -75 65 -155 32 -80 62 -149
66 -154 5 -6 9 -17 9 -25 0 -7 11 -37 24 -65 36 -79 61 -140 59 -146 -1 -3 2
-9 7 -15 4 -5 47 -107 95 -225 48 -118 94 -231 103 -250 8 -19 16 -39 17 -45
2 -5 20 -48 40 -95 20 -47 55 -130 77 -185 22 -55 46 -113 53 -130 8 -16 35
-82 60 -145 26 -63 56 -134 66 -157 10 -23 19 -45 19 -48 0 -4 7 -22 15 -41
37 -85 83 -195 192 -464 30 -74 61 -148 68 -165 13 -27 97 -231 191 -463 19
-46 43 -103 54 -127 11 -24 20 -47 20 -50 0 -3 11 -31 25 -61 14 -30 25 -56
25 -58 0 -2 8 -21 17 -42 9 -22 18 -45 19 -52 1 -6 11 -31 22 -55 40 -88 127
-299 155 -377 1 -3 -595 -5 -1325 -6 -731 0 -1328 3 -1328 6 0 7 43 114 70
175 10 22 44 101 75 175 32 74 65 153 75 175 10 22 28 65 40 95 12 30 31 73
41 95 53 118 61 75 -78 426 -68 173 -130 328 -137 344 -7 17 -17 41 -22 54 -9
22 -17 8 -73 -125 -35 -82 -69 -162 -76 -179 -8 -16 -37 -86 -66 -155 -49
-119 -65 -157 -95 -225 -17 -41 -37 -89 -39 -95 0 -3 -8 -21 -17 -40 -8 -19
-23 -55 -33 -80 -9 -25 -21 -52 -26 -60 -5 -8 -12 -22 -15 -30 -15 -38 -76
-187 -84 -205 -5 -11 -23 -54 -40 -95 -17 -41 -37 -88 -45 -105 -8 -16 -23
-52 -34 -80 -11 -27 -27 -67 -35 -87 -9 -21 -16 -39 -15 -40 1 -2 -8 -21 -20
-43 -11 -22 -21 -47 -21 -56 0 -9 -7 -22 -15 -29 -8 -7 -15 -20 -15 -30 0 -9
-3 -20 -8 -24 -4 -4 -7 -11 -8 -14 -1 -8 -3 -14 -71 -171 -29 -69 -53 -128
-53 -132 0 -4 14 -6 31 -5 16 1 32 -1 35 -5 3 -5 15 -4 27 0 12 5 32 5 44 0
13 -5 25 -4 28 1 3 5 18 5 35 0 17 -5 30 -6 30 -2 0 8 62 8 76 0 5 -3 18 -2
29 2 11 4 30 4 42 -1 12 -5 25 -4 28 1 3 5 18 5 35 0 17 -5 30 -6 30 -2 0 8
62 8 76 0 5 -3 18 -2 29 2 11 4 30 4 42 -1 12 -5 25 -4 28 1 3 5 18 5 35 0 17
-5 30 -6 30 -2 0 8 62 8 76 0 5 -3 18 -2 29 2 11 4 30 4 42 -1 12 -5 25 -4 28
1 3 5 18 5 35 0 17 -5 30 -6 30 -2 0 8 62 8 76 0 5 -3 18 -2 29 2 11 4 30 4
42 -1 12 -5 25 -4 28 1 3 5 18 5 35 0 17 -5 30 -6 30 -2 0 8 62 8 76 0 5 -3
18 -2 29 2 11 4 30 4 42 -1 12 -5 25 -4 28 1 3 5 18 5 35 0 17 -5 30 -6 30 -2
0 8 62 8 76 0 5 -3 18 -2 29 2 11 4 30 4 42 -1 12 -5 25 -4 28 1 3 5 18 5 35
0 17 -5 30 -6 30 -2 0 8 62 8 76 0 5 -3 18 -2 29 2 11 4 30 4 42 -1 12 -5 25
-4 28 1 3 5 18 5 35 0 17 -5 30 -6 30 -2 0 8 62 8 76 0 5 -3 18 -2 29 2 11 4
30 4 42 -1 12 -5 25 -4 28 1 3 5 18 5 35 0 17 -5 30 -6 30 -2 0 8 62 8 76 0 5
-3 18 -2 29 2 11 4 30 4 42 -1 12 -5 25 -4 28 1 3 5 18 5 35 0 17 -5 30 -6 30
-2 0 8 62 8 76 0 5 -3 18 -2 29 2 11 4 30 4 42 -1 12 -5 25 -4 28 1 3 5 18 5
35 0 17 -5 30 -6 30 -2 0 8 62 8 76 0 5 -3 18 -2 29 2 11 4 30 4 42 -1 12 -5
25 -4 28 1 3 5 18 5 35 0 17 -5 30 -6 30 -2 0 8 62 8 76 0 5 -3 18 -2 29 2 11
4 30 4 42 -1 12 -5 25 -4 28 1 3 5 18 5 35 0 17 -5 30 -6 30 -2 0 8 62 8 76 0
5 -3 18 -2 29 2 11 4 30 4 42 -1 12 -5 25 -4 28 0 3 5 20 6 37 2 18 -4 48 -4
66 0 17 3 32 3 32 -2 0 -4 12 -4 28 0 15 5 37 5 49 0 12 -4 25 -4 28 0 3 5 20
6 37 2 18 -4 48 -4 66 0 17 3 32 3 32 -2 0 -4 12 -4 28 0 15 5 37 5 49 0 12
-4 25 -4 28 0 3 5 20 6 37 2 18 -4 48 -4 66 0 17 3 32 3 32 -2 0 -4 12 -4 28
0 15 5 37 5 49 0 12 -4 25 -4 28 0 3 5 20 6 37 2 18 -4 48 -4 66 0 17 3 32 3
32 -2 0 -4 12 -4 28 0 15 5 37 5 49 0 13 -5 25 -4 28 2 4 5 10 7 15 4 16 -10
125 -9 126 1 2 11 -4 30 -21 69 -8 17 -23 55 -35 85 -12 30 -27 69 -35 85 -7
17 -19 46 -28 65 -8 19 -27 64 -41 100 -15 36 -31 74 -36 85 -33 71 -130 310
-130 321 0 7 -3 14 -8 16 -4 2 -28 55 -54 118 -72 174 -137 333 -148 355 -5
11 -32 76 -60 145 -29 69 -60 143 -70 165 -9 22 -115 274 -235 560 -119 286
-223 534 -230 550 -8 17 -43 102 -80 190 -37 88 -82 195 -101 238 -19 43 -34
85 -34 92 0 7 -3 15 -7 17 -5 2 -16 23 -25 48 -21 56 -223 540 -249 596 -10
22 -19 43 -19 47 0 3 -11 30 -24 59 -14 30 -33 76 -44 103 -11 28 -28 68 -38
90 -10 22 -18 42 -19 45 -5 17 -63 150 -73 169 -6 11 -64 14 -320 15 l-312 1
6 -30z"/>
</g>
</svg>
